# MagicaVoxel @ Ephtracy

# group
g lamppost

# material
mtllib lamppost.mtl
usemtl palette

# normals
vn -1 0 0
vn 1 0 0
vn 0 0 1
vn 0 0 -1
vn 0 -1 0
vn 0 1 0

# texcoords
vt 0.0410156 0.5
vt 0.990234 0.5
vt 0.994141 0.5

# verts
v -9 4 -3
v -9 4 -8
v -9 7 -3
v -9 7 -8
v -8 4 -2
v -8 4 -3
v -8 4 -8
v -8 4 -9
v -8 7 -2
v -8 7 -3
v -8 7 -8
v -8 7 -9
v -7 4 -1
v -7 4 -2
v -7 4 -9
v -7 4 -10
v -7 7 -1
v -7 7 -2
v -7 7 -9
v -7 7 -10
v -6 4 -0
v -6 4 -1
v -6 4 -10
v -6 4 -11
v -6 7 -0
v -6 7 -1
v -6 7 -10
v -6 7 -11
v -6 22 -3
v -6 22 -8
v -6 23 -3
v -6 23 -8
v -6 27 8
v -6 27 5
v -6 28 8
v -6 28 5
v -6 32 8
v -6 32 5
v -6 33 8
v -6 33 5
v -6 34 -3
v -6 34 -8
v -6 35 -3
v -6 35 -8
v -5 7 -4
v -5 7 -7
v -5 22 -4
v -5 22 -7
v -5 23 -4
v -5 23 -7
v -5 27 9
v -5 27 8
v -5 27 5
v -5 27 4
v -5 28 9
v -5 28 8
v -5 28 5
v -5 28 4
v -5 32 9
v -5 32 8
v -5 32 5
v -5 32 4
v -5 33 9
v -5 33 8
v -5 33 5
v -5 33 4
v -5 34 -4
v -5 34 -7
v -5 35 -4
v -5 35 -7
v -5 36 8
v -5 36 5
v -5 36 -3
v -5 36 -4
v -5 36 -6
v -5 36 -7
v -5 37 -2
v -5 37 -3
v -5 37 -5
v -5 37 -6
v -5 38 -1
v -5 38 -2
v -5 39 5
v -5 39 -1
v -5 39 -3
v -5 39 -5
v -5 40 -2
v -5 40 -3
v -5 41 8
v -5 41 -2
v -4 33 7
v -4 33 6
v -4 35 7
v -4 35 6
v -4 36 7
v -4 36 6
v -3 6 -5
v -3 6 -6
v -3 7 -5
v -3 7 -6
v -3 22 -5
v -3 22 -6
v -3 23 -5
v -3 23 -6
v -3 34 -5
v -3 34 -6
v -3 35 -5
v -3 35 -6
v -4 6 -5
v -4 6 -6
v -4 7 -5
v -4 7 -6
v -4 22 -5
v -4 22 -6
v -4 23 -5
v -4 23 -6
v -4 34 -5
v -4 34 -6
v -4 35 -5
v -4 35 -6
v -3 33 7
v -3 33 6
v -3 35 7
v -3 35 6
v -3 36 7
v -3 36 6
v -2 7 -4
v -2 7 -7
v -2 22 -4
v -2 22 -7
v -2 23 -4
v -2 23 -7
v -2 27 9
v -2 27 8
v -2 27 5
v -2 27 4
v -2 28 9
v -2 28 8
v -2 28 5
v -2 28 4
v -2 32 9
v -2 32 8
v -2 32 5
v -2 32 4
v -2 33 9
v -2 33 8
v -2 33 5
v -2 33 4
v -2 34 -4
v -2 34 -7
v -2 35 -4
v -2 35 -7
v -2 36 8
v -2 36 5
v -2 36 -3
v -2 36 -4
v -2 36 -6
v -2 36 -7
v -2 37 -2
v -2 37 -3
v -2 37 -5
v -2 37 -6
v -2 38 -1
v -2 38 -2
v -2 39 5
v -2 39 -1
v -2 39 -3
v -2 39 -5
v -2 40 -2
v -2 40 -3
v -2 41 8
v -2 41 -2
v -1 4 -0
v -1 4 -1
v -1 4 -10
v -1 4 -11
v -1 7 -0
v -1 7 -1
v -1 7 -10
v -1 7 -11
v -1 22 -3
v -1 22 -8
v -1 23 -3
v -1 23 -8
v -1 27 8
v -1 27 5
v -1 28 8
v -1 28 5
v -1 32 8
v -1 32 5
v -1 33 8
v -1 33 5
v -1 34 -3
v -1 34 -8
v -1 35 -3
v -1 35 -8
v 0 4 -1
v 0 4 -2
v 0 4 -9
v 0 4 -10
v 0 7 -1
v 0 7 -2
v 0 7 -9
v 0 7 -10
v 1 4 -2
v 1 4 -3
v 1 4 -8
v 1 4 -9
v 1 7 -2
v 1 7 -3
v 1 7 -8
v 1 7 -9
v 2 4 -3
v 2 4 -8
v 2 7 -3
v 2 7 -8
v -5 27 9
v -5 28 9
v -5 32 9
v -5 33 9
v -2 27 9
v -2 28 9
v -2 32 9
v -2 33 9
v -6 27 8
v -6 28 8
v -6 32 8
v -6 33 8
v -5 27 8
v -5 28 8
v -5 32 8
v -5 33 8
v -5 36 8
v -5 41 8
v -2 27 8
v -2 28 8
v -2 32 8
v -2 33 8
v -2 36 8
v -2 41 8
v -1 27 8
v -1 28 8
v -1 32 8
v -1 33 8
v -4 33 7
v -4 35 7
v -4 36 7
v -3 33 7
v -3 35 7
v -3 36 7
v -6 4 -0
v -6 7 -0
v -1 4 -0
v -1 7 -0
v -7 4 -1
v -7 7 -1
v -6 4 -1
v -6 7 -1
v -5 38 -1
v -5 39 -1
v -2 38 -1
v -2 39 -1
v -1 4 -1
v -1 7 -1
v 0 4 -1
v 0 7 -1
v -8 4 -2
v -8 7 -2
v -7 4 -2
v -7 7 -2
v -5 37 -2
v -5 38 -2
v -2 37 -2
v -2 38 -2
v 0 4 -2
v 0 7 -2
v 1 4 -2
v 1 7 -2
v -9 4 -3
v -9 7 -3
v -8 4 -3
v -8 7 -3
v -6 22 -3
v -6 23 -3
v -6 34 -3
v -6 35 -3
v -5 36 -3
v -5 37 -3
v -2 36 -3
v -2 37 -3
v -1 22 -3
v -1 23 -3
v -1 34 -3
v -1 35 -3
v 1 4 -3
v 1 7 -3
v 2 4 -3
v 2 7 -3
v -5 7 -4
v -5 22 -4
v -5 23 -4
v -5 34 -4
v -5 35 -4
v -5 36 -4
v -2 7 -4
v -2 22 -4
v -2 23 -4
v -2 34 -4
v -2 35 -4
v -2 36 -4
v -4 6 -6
v -4 7 -6
v -4 22 -6
v -4 23 -6
v -4 34 -6
v -4 35 -6
v -3 6 -6
v -3 7 -6
v -3 22 -6
v -3 23 -6
v -3 34 -6
v -3 35 -6
v -4 33 6
v -4 35 6
v -4 36 6
v -3 33 6
v -3 35 6
v -3 36 6
v -6 27 5
v -6 28 5
v -6 32 5
v -6 33 5
v -5 27 5
v -5 28 5
v -5 32 5
v -5 33 5
v -5 36 5
v -5 39 5
v -2 27 5
v -2 28 5
v -2 32 5
v -2 33 5
v -2 36 5
v -2 39 5
v -1 27 5
v -1 28 5
v -1 32 5
v -1 33 5
v -5 27 4
v -5 28 4
v -5 32 4
v -5 33 4
v -2 27 4
v -2 28 4
v -2 32 4
v -2 33 4
v -5 40 -2
v -5 41 -2
v -2 40 -2
v -2 41 -2
v -5 39 -3
v -5 40 -3
v -2 39 -3
v -2 40 -3
v -5 37 -5
v -5 39 -5
v -4 6 -5
v -4 7 -5
v -4 22 -5
v -4 23 -5
v -4 34 -5
v -4 35 -5
v -3 6 -5
v -3 7 -5
v -3 22 -5
v -3 23 -5
v -3 34 -5
v -3 35 -5
v -2 37 -5
v -2 39 -5
v -5 36 -6
v -5 37 -6
v -2 36 -6
v -2 37 -6
v -5 7 -7
v -5 22 -7
v -5 23 -7
v -5 34 -7
v -5 35 -7
v -5 36 -7
v -2 7 -7
v -2 22 -7
v -2 23 -7
v -2 34 -7
v -2 35 -7
v -2 36 -7
v -9 4 -8
v -9 7 -8
v -8 4 -8
v -8 7 -8
v -6 22 -8
v -6 23 -8
v -6 34 -8
v -6 35 -8
v -1 22 -8
v -1 23 -8
v -1 34 -8
v -1 35 -8
v 1 4 -8
v 1 7 -8
v 2 4 -8
v 2 7 -8
v -8 4 -9
v -8 7 -9
v -7 4 -9
v -7 7 -9
v 0 4 -9
v 0 7 -9
v 1 4 -9
v 1 7 -9
v -7 4 -10
v -7 7 -10
v -6 4 -10
v -6 7 -10
v -1 4 -10
v -1 7 -10
v 0 4 -10
v 0 7 -10
v -6 4 -11
v -6 7 -11
v -1 4 -11
v -1 7 -11
v -6 4 -0
v -1 4 -0
v -7 4 -1
v -6 4 -1
v -1 4 -1
v 0 4 -1
v -8 4 -2
v -7 4 -2
v 0 4 -2
v 1 4 -2
v -9 4 -3
v -8 4 -3
v 1 4 -3
v 2 4 -3
v -9 4 -8
v -8 4 -8
v 1 4 -8
v 2 4 -8
v -8 4 -9
v -7 4 -9
v 0 4 -9
v 1 4 -9
v -7 4 -10
v -6 4 -10
v -1 4 -10
v 0 4 -10
v -6 4 -11
v -1 4 -11
v -4 7 -5
v -3 7 -5
v -4 7 -6
v -3 7 -6
v -6 22 -3
v -1 22 -3
v -5 22 -4
v -2 22 -4
v -5 22 -7
v -2 22 -7
v -6 22 -8
v -1 22 -8
v -4 23 -5
v -3 23 -5
v -4 23 -6
v -3 23 -6
v -5 27 9
v -2 27 9
v -6 27 8
v -5 27 8
v -2 27 8
v -1 27 8
v -6 27 5
v -5 27 5
v -2 27 5
v -1 27 5
v -5 27 4
v -2 27 4
v -5 32 9
v -2 32 9
v -6 32 8
v -5 32 8
v -2 32 8
v -1 32 8
v -6 32 5
v -5 32 5
v -2 32 5
v -1 32 5
v -5 32 4
v -2 32 4
v -6 34 -3
v -1 34 -3
v -5 34 -4
v -2 34 -4
v -5 34 -7
v -2 34 -7
v -6 34 -8
v -1 34 -8
v -4 35 -5
v -3 35 -5
v -4 35 -6
v -3 35 -6
v -5 36 8
v -2 36 8
v -4 36 7
v -3 36 7
v -4 36 6
v -3 36 6
v -5 36 5
v -2 36 5
v -5 36 -3
v -2 36 -3
v -5 36 -4
v -2 36 -4
v -5 37 -2
v -2 37 -2
v -5 37 -3
v -2 37 -3
v -5 38 -1
v -2 38 -1
v -5 38 -2
v -2 38 -2
v -5 39 5
v -2 39 5
v -5 39 -1
v -2 39 -1
v -4 6 -5
v -3 6 -5
v -4 6 -6
v -3 6 -6
v -6 7 -0
v -1 7 -0
v -7 7 -1
v -6 7 -1
v -1 7 -1
v 0 7 -1
v -8 7 -2
v -7 7 -2
v 0 7 -2
v 1 7 -2
v -9 7 -3
v -8 7 -3
v 1 7 -3
v 2 7 -3
v -5 7 -4
v -2 7 -4
v -5 7 -7
v -2 7 -7
v -9 7 -8
v -8 7 -8
v 1 7 -8
v 2 7 -8
v -8 7 -9
v -7 7 -9
v 0 7 -9
v 1 7 -9
v -7 7 -10
v -6 7 -10
v -1 7 -10
v 0 7 -10
v -6 7 -11
v -1 7 -11
v -4 22 -5
v -3 22 -5
v -4 22 -6
v -3 22 -6
v -6 23 -3
v -1 23 -3
v -5 23 -4
v -2 23 -4
v -5 23 -7
v -2 23 -7
v -6 23 -8
v -1 23 -8
v -5 28 9
v -2 28 9
v -6 28 8
v -5 28 8
v -2 28 8
v -1 28 8
v -6 28 5
v -5 28 5
v -2 28 5
v -1 28 5
v -5 28 4
v -2 28 4
v -5 33 9
v -2 33 9
v -6 33 8
v -5 33 8
v -2 33 8
v -1 33 8
v -4 33 7
v -3 33 7
v -4 33 6
v -3 33 6
v -6 33 5
v -5 33 5
v -2 33 5
v -1 33 5
v -5 33 4
v -2 33 4
v -4 34 -5
v -3 34 -5
v -4 34 -6
v -3 34 -6
v -6 35 -3
v -1 35 -3
v -5 35 -4
v -2 35 -4
v -5 35 -7
v -2 35 -7
v -6 35 -8
v -1 35 -8
v -5 36 -6
v -2 36 -6
v -5 36 -7
v -2 36 -7
v -5 37 -5
v -2 37 -5
v -5 37 -6
v -2 37 -6
v -5 39 -3
v -2 39 -3
v -5 39 -5
v -2 39 -5
v -5 40 -2
v -2 40 -2
v -5 40 -3
v -2 40 -3
v -5 41 8
v -2 41 8
v -5 41 -2
v -2 41 -2

# faces
f 3/3/1 2/3/1 1/3/1
f 4/3/1 2/3/1 3/3/1
f 9/3/1 6/3/1 5/3/1
f 10/3/1 6/3/1 9/3/1
f 11/3/1 8/3/1 7/3/1
f 12/3/1 8/3/1 11/3/1
f 17/3/1 14/3/1 13/3/1
f 18/3/1 14/3/1 17/3/1
f 19/3/1 16/3/1 15/3/1
f 20/3/1 16/3/1 19/3/1
f 25/3/1 22/3/1 21/3/1
f 26/3/1 22/3/1 25/3/1
f 27/3/1 24/3/1 23/3/1
f 28/3/1 24/3/1 27/3/1
f 31/3/1 30/3/1 29/3/1
f 32/3/1 30/3/1 31/3/1
f 35/3/1 34/3/1 33/3/1
f 36/3/1 34/3/1 35/3/1
f 39/3/1 38/3/1 37/3/1
f 40/3/1 38/3/1 39/3/1
f 43/3/1 42/3/1 41/3/1
f 44/3/1 42/3/1 43/3/1
f 47/2/1 46/2/1 45/2/1
f 48/2/1 46/2/1 47/2/1
f 55/3/1 52/3/1 51/3/1
f 56/3/1 52/3/1 55/3/1
f 57/3/1 54/3/1 53/3/1
f 58/3/1 54/3/1 57/3/1
f 60/1/1 57/1/1 56/1/1
f 61/1/1 57/1/1 60/1/1
f 63/3/1 60/3/1 59/3/1
f 64/3/1 60/3/1 63/3/1
f 65/3/1 62/3/1 61/3/1
f 66/3/1 62/3/1 65/3/1
f 67/2/1 50/2/1 49/2/1
f 68/2/1 50/2/1 67/2/1
f 74/2/1 70/2/1 69/2/1
f 75/2/1 70/2/1 74/2/1
f 76/2/1 70/2/1 75/2/1
f 78/2/1 74/2/1 73/2/1
f 78/2/1 75/2/1 74/2/1
f 79/2/1 75/2/1 78/2/1
f 80/2/1 75/2/1 79/2/1
f 82/2/1 78/2/1 77/2/1
f 82/2/1 79/2/1 78/2/1
f 83/2/1 72/2/1 71/2/1
f 84/2/1 82/2/1 81/2/1
f 85/2/1 79/2/1 82/2/1
f 85/2/1 82/2/1 84/2/1
f 86/2/1 79/2/1 85/2/1
f 87/2/1 84/2/1 83/2/1
f 87/2/1 85/2/1 84/2/1
f 88/2/1 85/2/1 87/2/1
f 89/2/1 83/2/1 71/2/1
f 89/2/1 87/2/1 83/2/1
f 90/2/1 87/2/1 89/2/1
f 93/3/1 92/3/1 91/3/1
f 94/3/1 92/3/1 93/3/1
f 95/2/1 94/2/1 93/2/1
f 96/2/1 94/2/1 95/2/1
f 99/3/1 98/3/1 97/3/1
f 100/3/1 98/3/1 99/3/1
f 103/3/1 102/3/1 101/3/1
f 104/3/1 102/3/1 103/3/1
f 107/3/1 106/3/1 105/3/1
f 108/3/1 106/3/1 107/3/1
f 109/3/2 110/3/2 111/3/2
f 111/3/2 110/3/2 112/3/2
f 113/3/2 114/3/2 115/3/2
f 115/3/2 114/3/2 116/3/2
f 117/3/2 118/3/2 119/3/2
f 119/3/2 118/3/2 120/3/2
f 121/3/2 122/3/2 123/3/2
f 123/3/2 122/3/2 124/3/2
f 123/2/2 124/2/2 125/2/2
f 125/2/2 124/2/2 126/2/2
f 127/2/2 128/2/2 129/2/2
f 129/2/2 128/2/2 130/2/2
f 133/3/2 134/3/2 137/3/2
f 137/3/2 134/3/2 138/3/2
f 135/3/2 136/3/2 139/3/2
f 139/3/2 136/3/2 140/3/2
f 138/1/2 139/1/2 142/1/2
f 142/1/2 139/1/2 143/1/2
f 141/3/2 142/3/2 145/3/2
f 145/3/2 142/3/2 146/3/2
f 143/3/2 144/3/2 147/3/2
f 147/3/2 144/3/2 148/3/2
f 131/2/2 132/2/2 149/2/2
f 149/2/2 132/2/2 150/2/2
f 151/2/2 152/2/2 156/2/2
f 156/2/2 152/2/2 157/2/2
f 157/2/2 152/2/2 158/2/2
f 155/2/2 156/2/2 160/2/2
f 156/2/2 157/2/2 160/2/2
f 160/2/2 157/2/2 161/2/2
f 161/2/2 157/2/2 162/2/2
f 159/2/2 160/2/2 164/2/2
f 160/2/2 161/2/2 164/2/2
f 153/2/2 154/2/2 165/2/2
f 163/2/2 164/2/2 166/2/2
f 164/2/2 161/2/2 167/2/2
f 166/2/2 164/2/2 167/2/2
f 167/2/2 161/2/2 168/2/2
f 165/2/2 166/2/2 169/2/2
f 166/2/2 167/2/2 169/2/2
f 169/2/2 167/2/2 170/2/2
f 153/2/2 165/2/2 171/2/2
f 165/2/2 169/2/2 171/2/2
f 171/2/2 169/2/2 172/2/2
f 173/3/2 174/3/2 177/3/2
f 177/3/2 174/3/2 178/3/2
f 175/3/2 176/3/2 179/3/2
f 179/3/2 176/3/2 180/3/2
f 181/3/2 182/3/2 183/3/2
f 183/3/2 182/3/2 184/3/2
f 185/3/2 186/3/2 187/3/2
f 187/3/2 186/3/2 188/3/2
f 189/3/2 190/3/2 191/3/2
f 191/3/2 190/3/2 192/3/2
f 193/3/2 194/3/2 195/3/2
f 195/3/2 194/3/2 196/3/2
f 197/3/2 198/3/2 201/3/2
f 201/3/2 198/3/2 202/3/2
f 199/3/2 200/3/2 203/3/2
f 203/3/2 200/3/2 204/3/2
f 205/3/2 206/3/2 209/3/2
f 209/3/2 206/3/2 210/3/2
f 207/3/2 208/3/2 211/3/2
f 211/3/2 208/3/2 212/3/2
f 213/3/2 214/3/2 215/3/2
f 215/3/2 214/3/2 216/3/2
f 221/3/3 218/3/3 217/3/3
f 222/3/3 218/3/3 221/3/3
f 223/3/3 220/3/3 219/3/3
f 224/3/3 220/3/3 223/3/3
f 229/3/3 226/3/3 225/3/3
f 230/3/3 226/3/3 229/3/3
f 231/3/3 228/3/3 227/3/3
f 232/3/3 228/3/3 231/3/3
f 236/1/3 231/1/3 230/1/3
f 237/1/3 231/1/3 236/1/3
f 239/2/3 234/2/3 233/2/3
f 240/2/3 234/2/3 239/2/3
f 241/3/3 236/3/3 235/3/3
f 242/3/3 236/3/3 241/3/3
f 243/3/3 238/3/3 237/3/3
f 244/3/3 238/3/3 243/3/3
f 248/3/3 246/3/3 245/3/3
f 249/2/3 247/2/3 246/2/3
f 249/3/3 246/3/3 248/3/3
f 250/2/3 247/2/3 249/2/3
f 253/3/3 252/3/3 251/3/3
f 254/3/3 252/3/3 253/3/3
f 257/3/3 256/3/3 255/3/3
f 258/3/3 256/3/3 257/3/3
f 261/2/3 260/2/3 259/2/3
f 262/2/3 260/2/3 261/2/3
f 265/3/3 264/3/3 263/3/3
f 266/3/3 264/3/3 265/3/3
f 269/3/3 268/3/3 267/3/3
f 270/3/3 268/3/3 269/3/3
f 273/2/3 272/2/3 271/2/3
f 274/2/3 272/2/3 273/2/3
f 277/3/3 276/3/3 275/3/3
f 278/3/3 276/3/3 277/3/3
f 281/3/3 280/3/3 279/3/3
f 282/3/3 280/3/3 281/3/3
f 289/2/3 288/2/3 287/2/3
f 290/2/3 288/2/3 289/2/3
f 291/3/3 284/3/3 283/3/3
f 292/3/3 284/3/3 291/3/3
f 293/3/3 286/3/3 285/3/3
f 294/3/3 286/3/3 293/3/3
f 297/3/3 296/3/3 295/3/3
f 298/3/3 296/3/3 297/3/3
f 305/2/3 300/2/3 299/2/3
f 306/2/3 300/2/3 305/2/3
f 307/2/3 302/2/3 301/2/3
f 308/2/3 302/2/3 307/2/3
f 309/2/3 304/2/3 303/2/3
f 310/2/3 304/2/3 309/2/3
f 317/3/3 312/3/3 311/3/3
f 318/3/3 312/3/3 317/3/3
f 319/3/3 314/3/3 313/3/3
f 320/3/3 314/3/3 319/3/3
f 321/3/3 316/3/3 315/3/3
f 322/3/3 316/3/3 321/3/3
f 323/3/4 324/3/4 326/3/4
f 324/2/4 325/2/4 327/2/4
f 326/3/4 324/3/4 327/3/4
f 327/2/4 325/2/4 328/2/4
f 329/3/4 330/3/4 333/3/4
f 333/3/4 330/3/4 334/3/4
f 331/3/4 332/3/4 335/3/4
f 335/3/4 332/3/4 336/3/4
f 334/1/4 335/1/4 340/1/4
f 340/1/4 335/1/4 341/1/4
f 337/2/4 338/2/4 343/2/4
f 343/2/4 338/2/4 344/2/4
f 339/3/4 340/3/4 345/3/4
f 345/3/4 340/3/4 346/3/4
f 341/3/4 342/3/4 347/3/4
f 347/3/4 342/3/4 348/3/4
f 349/3/4 350/3/4 353/3/4
f 353/3/4 350/3/4 354/3/4
f 351/3/4 352/3/4 355/3/4
f 355/3/4 352/3/4 356/3/4
f 357/2/4 358/2/4 359/2/4
f 359/2/4 358/2/4 360/2/4
f 361/2/4 362/2/4 363/2/4
f 363/2/4 362/2/4 364/2/4
f 367/3/4 368/3/4 373/3/4
f 373/3/4 368/3/4 374/3/4
f 369/3/4 370/3/4 375/3/4
f 375/3/4 370/3/4 376/3/4
f 371/3/4 372/3/4 377/3/4
f 377/3/4 372/3/4 378/3/4
f 365/2/4 366/2/4 379/2/4
f 379/2/4 366/2/4 380/2/4
f 381/2/4 382/2/4 383/2/4
f 383/2/4 382/2/4 384/2/4
f 385/2/4 386/2/4 391/2/4
f 391/2/4 386/2/4 392/2/4
f 387/2/4 388/2/4 393/2/4
f 393/2/4 388/2/4 394/2/4
f 389/2/4 390/2/4 395/2/4
f 395/2/4 390/2/4 396/2/4
f 397/3/4 398/3/4 399/3/4
f 399/3/4 398/3/4 400/3/4
f 401/3/4 402/3/4 405/3/4
f 405/3/4 402/3/4 406/3/4
f 403/3/4 404/3/4 407/3/4
f 407/3/4 404/3/4 408/3/4
f 409/3/4 410/3/4 411/3/4
f 411/3/4 410/3/4 412/3/4
f 413/3/4 414/3/4 415/3/4
f 415/3/4 414/3/4 416/3/4
f 417/3/4 418/3/4 419/3/4
f 419/3/4 418/3/4 420/3/4
f 421/3/4 422/3/4 423/3/4
f 423/3/4 422/3/4 424/3/4
f 425/3/4 426/3/4 427/3/4
f 427/3/4 426/3/4 428/3/4
f 429/3/4 430/3/4 431/3/4
f 431/3/4 430/3/4 432/3/4
f 436/3/5 434/3/5 433/3/5
f 437/3/5 434/3/5 436/3/5
f 440/3/5 436/3/5 435/3/5
f 440/3/5 438/3/5 437/3/5
f 440/3/5 437/3/5 436/3/5
f 441/3/5 438/3/5 440/3/5
f 444/3/5 440/3/5 439/3/5
f 444/3/5 442/3/5 441/3/5
f 444/3/5 441/3/5 440/3/5
f 445/3/5 442/3/5 444/3/5
f 447/3/5 444/3/5 443/3/5
f 447/3/5 446/3/5 445/3/5
f 447/3/5 445/3/5 444/3/5
f 448/3/5 446/3/5 447/3/5
f 449/3/5 446/3/5 448/3/5
f 450/3/5 446/3/5 449/3/5
f 451/3/5 449/3/5 448/3/5
f 452/3/5 449/3/5 451/3/5
f 453/3/5 449/3/5 452/3/5
f 454/3/5 449/3/5 453/3/5
f 455/3/5 453/3/5 452/3/5
f 456/3/5 453/3/5 455/3/5
f 457/3/5 453/3/5 456/3/5
f 458/3/5 453/3/5 457/3/5
f 459/3/5 457/3/5 456/3/5
f 460/3/5 457/3/5 459/3/5
f 463/2/5 462/2/5 461/2/5
f 464/2/5 462/2/5 463/2/5
f 467/3/5 466/3/5 465/3/5
f 468/3/5 466/3/5 467/3/5
f 469/3/5 467/3/5 465/3/5
f 470/3/5 466/3/5 468/3/5
f 471/3/5 469/3/5 465/3/5
f 471/3/5 470/3/5 469/3/5
f 472/3/5 466/3/5 470/3/5
f 472/3/5 470/3/5 471/3/5
f 475/2/5 474/2/5 473/2/5
f 476/2/5 474/2/5 475/2/5
f 480/3/5 478/3/5 477/3/5
f 481/3/5 478/3/5 480/3/5
f 483/3/5 480/3/5 479/3/5
f 483/3/5 482/3/5 481/3/5
f 483/3/5 481/3/5 480/3/5
f 484/3/5 482/3/5 483/3/5
f 485/3/5 482/3/5 484/3/5
f 486/3/5 482/3/5 485/3/5
f 487/3/5 485/3/5 484/3/5
f 488/3/5 485/3/5 487/3/5
f 492/3/5 490/3/5 489/3/5
f 493/3/5 490/3/5 492/3/5
f 495/3/5 492/3/5 491/3/5
f 496/3/5 492/3/5 495/3/5
f 497/3/5 494/3/5 493/3/5
f 498/3/5 494/3/5 497/3/5
f 499/3/5 497/3/5 496/3/5
f 500/3/5 497/3/5 499/3/5
f 503/3/5 502/3/5 501/3/5
f 504/3/5 502/3/5 503/3/5
f 505/3/5 503/3/5 501/3/5
f 506/3/5 502/3/5 504/3/5
f 507/3/5 505/3/5 501/3/5
f 507/3/5 506/3/5 505/3/5
f 508/3/5 502/3/5 506/3/5
f 508/3/5 506/3/5 507/3/5
f 511/2/5 510/2/5 509/2/5
f 512/2/5 510/2/5 511/2/5
f 515/2/5 514/2/5 513/2/5
f 516/2/5 514/2/5 515/2/5
f 517/2/5 515/2/5 513/2/5
f 518/2/5 514/2/5 516/2/5
f 519/2/5 517/2/5 513/2/5
f 519/2/5 518/2/5 517/2/5
f 520/2/5 514/2/5 518/2/5
f 520/2/5 518/2/5 519/2/5
f 523/2/5 522/2/5 521/2/5
f 524/2/5 522/2/5 523/2/5
f 527/2/5 526/2/5 525/2/5
f 528/2/5 526/2/5 527/2/5
f 531/2/5 530/2/5 529/2/5
f 532/2/5 530/2/5 531/2/5
f 535/2/5 534/2/5 533/2/5
f 536/2/5 534/2/5 535/2/5
f 537/3/6 538/3/6 539/3/6
f 539/3/6 538/3/6 540/3/6
f 541/3/6 542/3/6 544/3/6
f 544/3/6 542/3/6 545/3/6
f 543/3/6 544/3/6 548/3/6
f 545/3/6 546/3/6 548/3/6
f 544/3/6 545/3/6 548/3/6
f 548/3/6 546/3/6 549/3/6
f 547/3/6 548/3/6 552/3/6
f 549/3/6 550/3/6 552/3/6
f 548/3/6 549/3/6 552/3/6
f 552/3/6 550/3/6 553/3/6
f 551/3/6 552/3/6 555/3/6
f 553/3/6 554/3/6 555/3/6
f 552/3/6 553/3/6 555/3/6
f 555/3/6 554/3/6 556/3/6
f 551/3/6 555/3/6 557/3/6
f 556/3/6 554/3/6 558/3/6
f 551/3/6 557/3/6 559/3/6
f 557/3/6 558/3/6 559/3/6
f 559/3/6 558/3/6 560/3/6
f 558/3/6 554/3/6 561/3/6
f 560/3/6 558/3/6 561/3/6
f 561/3/6 554/3/6 562/3/6
f 560/3/6 561/3/6 563/3/6
f 563/3/6 561/3/6 564/3/6
f 564/3/6 561/3/6 565/3/6
f 565/3/6 561/3/6 566/3/6
f 564/3/6 565/3/6 567/3/6
f 567/3/6 565/3/6 568/3/6
f 568/3/6 565/3/6 569/3/6
f 569/3/6 565/3/6 570/3/6
f 568/3/6 569/3/6 571/3/6
f 571/3/6 569/3/6 572/3/6
f 573/2/6 574/2/6 575/2/6
f 575/2/6 574/2/6 576/2/6
f 577/3/6 578/3/6 579/3/6
f 579/3/6 578/3/6 580/3/6
f 577/3/6 579/3/6 581/3/6
f 580/3/6 578/3/6 582/3/6
f 577/3/6 581/3/6 583/3/6
f 581/3/6 582/3/6 583/3/6
f 582/3/6 578/3/6 584/3/6
f 583/3/6 582/3/6 584/3/6
f 585/3/6 586/3/6 588/3/6
f 588/3/6 586/3/6 589/3/6
f 587/3/6 588/3/6 591/3/6
f 591/3/6 588/3/6 592/3/6
f 589/3/6 590/3/6 593/3/6
f 593/3/6 590/3/6 594/3/6
f 592/3/6 593/3/6 595/3/6
f 595/3/6 593/3/6 596/3/6
f 597/3/6 598/3/6 600/3/6
f 600/3/6 598/3/6 601/3/6
f 599/3/6 600/3/6 603/3/6
f 601/3/6 602/3/6 603/3/6
f 600/3/6 601/3/6 603/3/6
f 603/3/6 602/3/6 604/3/6
f 599/3/6 603/3/6 605/3/6
f 604/3/6 602/3/6 606/3/6
f 599/3/6 605/3/6 607/3/6
f 605/3/6 606/3/6 607/3/6
f 607/3/6 606/3/6 608/3/6
f 606/3/6 602/3/6 609/3/6
f 608/3/6 606/3/6 609/3/6
f 609/3/6 602/3/6 610/3/6
f 608/3/6 609/3/6 611/3/6
f 611/3/6 609/3/6 612/3/6
f 613/2/6 614/2/6 615/2/6
f 615/2/6 614/2/6 616/2/6
f 617/3/6 618/3/6 619/3/6
f 619/3/6 618/3/6 620/3/6
f 617/3/6 619/3/6 621/3/6
f 620/3/6 618/3/6 622/3/6
f 617/3/6 621/3/6 623/3/6
f 621/3/6 622/3/6 623/3/6
f 622/3/6 618/3/6 624/3/6
f 623/3/6 622/3/6 624/3/6
f 625/2/6 626/2/6 627/2/6
f 627/2/6 626/2/6 628/2/6
f 629/2/6 630/2/6 631/2/6
f 631/2/6 630/2/6 632/2/6
f 633/2/6 634/2/6 635/2/6
f 635/2/6 634/2/6 636/2/6
f 637/2/6 638/2/6 639/2/6
f 639/2/6 638/2/6 640/2/6
f 641/2/6 642/2/6 643/2/6
f 643/2/6 642/2/6 644/2/6
