# MagicaVoxel @ Ephtracy

# group
g torch

# material
mtllib torch.mtl
usemtl palette

# normals
vn -1 0 0
vn 1 0 0
vn 0 0 1
vn 0 0 -1
vn 0 -1 0
vn 0 1 0

# texcoords
vt 0.0136719 0.5
vt 0.306641 0.5
vt 0.841797 0.5
vt 0.892578 0.5
vt 0.947266 0.5

# verts
v -4.5 0 2.5
v -4.5 0 -2.5
v -4.5 1 2.5
v -4.5 1 -2.5
v -3.5 0 3.5
v -3.5 0 2.5
v -3.5 0 -2.5
v -3.5 0 -3.5
v -3.5 1 3.5
v -3.5 1 2.5
v -3.5 1 1.5
v -3.5 1 -1.5
v -3.5 1 -2.5
v -3.5 1 -3.5
v -3.5 2 1.5
v -3.5 2 -1.5
v -2.5 0 4.5
v -2.5 0 3.5
v -2.5 0 -3.5
v -2.5 0 -4.5
v -2.5 1 4.5
v -2.5 1 3.5
v -2.5 1 2.5
v -2.5 1 1.5
v -2.5 1 -1.5
v -2.5 1 -2.5
v -2.5 1 -3.5
v -2.5 1 -4.5
v -2.5 2 2.5
v -2.5 2 1.5
v -2.5 2 -1.5
v -2.5 2 -2.5
v -2.5 3 1.5
v -2.5 3 -1.5
v -2.5 6 0.5
v -2.5 6 -0.5
v -2.5 7 0.5
v -2.5 7 -0.5
v -2.5 9 0.5
v -2.5 9 -0.5
v -2.5 10 0.5
v -2.5 10 -0.5
v -1.5 1 3.5
v -1.5 1 2.5
v -1.5 1 -2.5
v -1.5 1 -3.5
v -1.5 2 3.5
v -1.5 2 2.5
v -1.5 2 1.5
v -1.5 2 -1.5
v -1.5 2 -2.5
v -1.5 2 -3.5
v -1.5 3 2.5
v -1.5 3 1.5
v -1.5 3 -1.5
v -1.5 3 -2.5
v -1.5 6 0.5
v -1.5 6 -0.5
v -1.5 7 0.5
v -1.5 7 -0.5
v -1.5 9 0.5
v -1.5 9 -0.5
v -1.5 10 0.5
v -1.5 10 -0.5
v -1.5 13 1.5
v -1.5 13 -1.5
v 1.5 1 3.5
v 1.5 1 2.5
v 1.5 1 -2.5
v 1.5 1 -3.5
v 1.5 2 3.5
v 1.5 2 2.5
v 1.5 2 1.5
v 1.5 2 -1.5
v 1.5 2 -2.5
v 1.5 2 -3.5
v 1.5 3 2.5
v 1.5 3 1.5
v 1.5 3 -1.5
v 1.5 3 -2.5
v 1.5 13 1.5
v 1.5 13 -1.5
v 2.5 0 4.5
v 2.5 0 3.5
v 2.5 0 -3.5
v 2.5 0 -4.5
v 2.5 1 4.5
v 2.5 1 3.5
v 2.5 1 2.5
v 2.5 1 1.5
v 2.5 1 -1.5
v 2.5 1 -2.5
v 2.5 1 -3.5
v 2.5 1 -4.5
v 2.5 2 2.5
v 2.5 2 1.5
v 2.5 2 -1.5
v 2.5 2 -2.5
v 2.5 3 1.5
v 2.5 3 -1.5
v 3.5 0 3.5
v 3.5 0 2.5
v 3.5 0 -2.5
v 3.5 0 -3.5
v 3.5 1 3.5
v 3.5 1 2.5
v 3.5 1 1.5
v 3.5 1 -1.5
v 3.5 1 -2.5
v 3.5 1 -3.5
v 3.5 2 1.5
v 3.5 2 -1.5
v 4.5 0 2.5
v 4.5 0 -2.5
v 4.5 1 2.5
v 4.5 1 -2.5
v -2.5 0 4.5
v -2.5 1 4.5
v 2.5 0 4.5
v 2.5 1 4.5
v -3.5 0 3.5
v -3.5 1 3.5
v -2.5 0 3.5
v -2.5 1 3.5
v -1.5 1 3.5
v -1.5 2 3.5
v 1.5 1 3.5
v 1.5 2 3.5
v 2.5 0 3.5
v 2.5 1 3.5
v 3.5 0 3.5
v 3.5 1 3.5
v -4.5 0 2.5
v -4.5 1 2.5
v -3.5 0 2.5
v -3.5 1 2.5
v -2.5 1 2.5
v -2.5 2 2.5
v -1.5 1 2.5
v -1.5 2 2.5
v -1.5 3 2.5
v 1.5 1 2.5
v 1.5 2 2.5
v 1.5 3 2.5
v 2.5 1 2.5
v 2.5 2 2.5
v 3.5 0 2.5
v 3.5 1 2.5
v 4.5 0 2.5
v 4.5 1 2.5
v -3.5 1 1.5
v -3.5 2 1.5
v -2.5 1 1.5
v -2.5 2 1.5
v -2.5 3 1.5
v -1.5 2 1.5
v -1.5 3 1.5
v -1.5 13 1.5
v 1.5 2 1.5
v 1.5 3 1.5
v 1.5 13 1.5
v 2.5 1 1.5
v 2.5 2 1.5
v 2.5 3 1.5
v 3.5 1 1.5
v 3.5 2 1.5
v -2.5 6 0.5
v -2.5 7 0.5
v -2.5 9 0.5
v -2.5 10 0.5
v -1.5 6 0.5
v -1.5 7 0.5
v -1.5 9 0.5
v -1.5 10 0.5
v -2.5 6 -0.5
v -2.5 7 -0.5
v -2.5 9 -0.5
v -2.5 10 -0.5
v -1.5 6 -0.5
v -1.5 7 -0.5
v -1.5 9 -0.5
v -1.5 10 -0.5
v -3.5 1 -1.5
v -3.5 2 -1.5
v -2.5 1 -1.5
v -2.5 2 -1.5
v -2.5 3 -1.5
v -1.5 2 -1.5
v -1.5 3 -1.5
v -1.5 13 -1.5
v 1.5 2 -1.5
v 1.5 3 -1.5
v 1.5 13 -1.5
v 2.5 1 -1.5
v 2.5 2 -1.5
v 2.5 3 -1.5
v 3.5 1 -1.5
v 3.5 2 -1.5
v -4.5 0 -2.5
v -4.5 1 -2.5
v -3.5 0 -2.5
v -3.5 1 -2.5
v -2.5 1 -2.5
v -2.5 2 -2.5
v -1.5 1 -2.5
v -1.5 2 -2.5
v -1.5 3 -2.5
v 1.5 1 -2.5
v 1.5 2 -2.5
v 1.5 3 -2.5
v 2.5 1 -2.5
v 2.5 2 -2.5
v 3.5 0 -2.5
v 3.5 1 -2.5
v 4.5 0 -2.5
v 4.5 1 -2.5
v -3.5 0 -3.5
v -3.5 1 -3.5
v -2.5 0 -3.5
v -2.5 1 -3.5
v -1.5 1 -3.5
v -1.5 2 -3.5
v 1.5 1 -3.5
v 1.5 2 -3.5
v 2.5 0 -3.5
v 2.5 1 -3.5
v 3.5 0 -3.5
v 3.5 1 -3.5
v -2.5 0 -4.5
v -2.5 1 -4.5
v 2.5 0 -4.5
v 2.5 1 -4.5
v -2.5 0 4.5
v 2.5 0 4.5
v -3.5 0 3.5
v -2.5 0 3.5
v -1.5 0 3.5
v 1.5 0 3.5
v 2.5 0 3.5
v 3.5 0 3.5
v -4.5 0 2.5
v -3.5 0 2.5
v -2.5 0 2.5
v -1.5 0 2.5
v 1.5 0 2.5
v 2.5 0 2.5
v 3.5 0 2.5
v 4.5 0 2.5
v -3.5 0 1.5
v -2.5 0 1.5
v 2.5 0 1.5
v 3.5 0 1.5
v -3.5 0 -1.5
v -2.5 0 -1.5
v 2.5 0 -1.5
v 3.5 0 -1.5
v -4.5 0 -2.5
v -3.5 0 -2.5
v -2.5 0 -2.5
v -1.5 0 -2.5
v 1.5 0 -2.5
v 2.5 0 -2.5
v 3.5 0 -2.5
v 4.5 0 -2.5
v -3.5 0 -3.5
v -2.5 0 -3.5
v -1.5 0 -3.5
v 1.5 0 -3.5
v 2.5 0 -3.5
v 3.5 0 -3.5
v -2.5 0 -4.5
v 2.5 0 -4.5
v -2.5 6 0.5
v -1.5 6 0.5
v -2.5 6 -0.5
v -1.5 6 -0.5
v -2.5 9 0.5
v -1.5 9 0.5
v -2.5 9 -0.5
v -1.5 9 -0.5
v -2.5 1 4.5
v 2.5 1 4.5
v -3.5 1 3.5
v -2.5 1 3.5
v -1.5 1 3.5
v 1.5 1 3.5
v 2.5 1 3.5
v 3.5 1 3.5
v -4.5 1 2.5
v -3.5 1 2.5
v -2.5 1 2.5
v -1.5 1 2.5
v 1.5 1 2.5
v 2.5 1 2.5
v 3.5 1 2.5
v 4.5 1 2.5
v -3.5 1 1.5
v -2.5 1 1.5
v 2.5 1 1.5
v 3.5 1 1.5
v -3.5 1 -1.5
v -2.5 1 -1.5
v 2.5 1 -1.5
v 3.5 1 -1.5
v -4.5 1 -2.5
v -3.5 1 -2.5
v -2.5 1 -2.5
v -1.5 1 -2.5
v 1.5 1 -2.5
v 2.5 1 -2.5
v 3.5 1 -2.5
v 4.5 1 -2.5
v -3.5 1 -3.5
v -2.5 1 -3.5
v -1.5 1 -3.5
v 1.5 1 -3.5
v 2.5 1 -3.5
v 3.5 1 -3.5
v -2.5 1 -4.5
v 2.5 1 -4.5
v -1.5 2 3.5
v 1.5 2 3.5
v -2.5 2 2.5
v -1.5 2 2.5
v 1.5 2 2.5
v 2.5 2 2.5
v -3.5 2 1.5
v -2.5 2 1.5
v -1.5 2 1.5
v 1.5 2 1.5
v 2.5 2 1.5
v 3.5 2 1.5
v -3.5 2 -1.5
v -2.5 2 -1.5
v -1.5 2 -1.5
v 1.5 2 -1.5
v 2.5 2 -1.5
v 3.5 2 -1.5
v -2.5 2 -2.5
v -1.5 2 -2.5
v 1.5 2 -2.5
v 2.5 2 -2.5
v -1.5 2 -3.5
v 1.5 2 -3.5
v -1.5 3 2.5
v 1.5 3 2.5
v -2.5 3 1.5
v -1.5 3 1.5
v 1.5 3 1.5
v 2.5 3 1.5
v -2.5 3 -1.5
v -1.5 3 -1.5
v 1.5 3 -1.5
v 2.5 3 -1.5
v -1.5 3 -2.5
v 1.5 3 -2.5
v -2.5 7 0.5
v -1.5 7 0.5
v -2.5 7 -0.5
v -1.5 7 -0.5
v -2.5 10 0.5
v -1.5 10 0.5
v -2.5 10 -0.5
v -1.5 10 -0.5
v -1.5 13 1.5
v 1.5 13 1.5
v -1.5 13 -1.5
v 1.5 13 -1.5

# faces
f 3/5/1 2/5/1 1/5/1
f 4/5/1 2/5/1 3/5/1
f 9/5/1 6/5/1 5/5/1
f 10/5/1 6/5/1 9/5/1
f 13/5/1 8/5/1 7/5/1
f 14/5/1 8/5/1 13/5/1
f 15/5/1 12/5/1 11/5/1
f 16/5/1 12/5/1 15/5/1
f 21/5/1 18/5/1 17/5/1
f 22/5/1 18/5/1 21/5/1
f 27/5/1 20/5/1 19/5/1
f 28/5/1 20/5/1 27/5/1
f 29/5/1 24/5/1 23/5/1
f 30/5/1 24/5/1 29/5/1
f 31/5/1 26/5/1 25/5/1
f 32/5/1 26/5/1 31/5/1
f 33/5/1 31/5/1 30/5/1
f 34/5/1 31/5/1 33/5/1
f 37/4/1 36/4/1 35/4/1
f 38/4/1 36/4/1 37/4/1
f 41/3/1 40/3/1 39/3/1
f 42/3/1 40/3/1 41/3/1
f 47/5/1 44/5/1 43/5/1
f 48/5/1 44/5/1 47/5/1
f 51/5/1 46/5/1 45/5/1
f 52/5/1 46/5/1 51/5/1
f 53/5/1 49/5/1 48/5/1
f 54/5/1 49/5/1 53/5/1
f 55/5/1 51/5/1 50/5/1
f 56/5/1 51/5/1 55/5/1
f 57/5/1 55/5/1 54/5/1
f 58/5/1 55/5/1 57/5/1
f 59/5/1 57/5/1 54/5/1
f 60/5/1 55/5/1 58/5/1
f 61/5/1 59/5/1 54/5/1
f 61/5/1 60/5/1 59/5/1
f 62/5/1 55/5/1 60/5/1
f 62/5/1 60/5/1 61/5/1
f 63/5/1 61/5/1 54/5/1
f 64/5/1 55/5/1 62/5/1
f 65/5/1 63/5/1 54/5/1
f 65/5/1 64/5/1 63/5/1
f 66/5/1 55/5/1 64/5/1
f 66/5/1 64/5/1 65/5/1
f 67/5/2 68/5/2 71/5/2
f 71/5/2 68/5/2 72/5/2
f 69/5/2 70/5/2 75/5/2
f 75/5/2 70/5/2 76/5/2
f 72/5/2 73/5/2 77/5/2
f 77/5/2 73/5/2 78/5/2
f 74/5/2 75/5/2 79/5/2
f 79/5/2 75/5/2 80/5/2
f 78/5/2 79/5/2 81/5/2
f 81/5/2 79/5/2 82/5/2
f 83/5/2 84/5/2 87/5/2
f 87/5/2 84/5/2 88/5/2
f 85/5/2 86/5/2 93/5/2
f 93/5/2 86/5/2 94/5/2
f 89/5/2 90/5/2 95/5/2
f 95/5/2 90/5/2 96/5/2
f 91/5/2 92/5/2 97/5/2
f 97/5/2 92/5/2 98/5/2
f 96/5/2 97/5/2 99/5/2
f 99/5/2 97/5/2 100/5/2
f 101/5/2 102/5/2 105/5/2
f 105/5/2 102/5/2 106/5/2
f 103/5/2 104/5/2 109/5/2
f 109/5/2 104/5/2 110/5/2
f 107/5/2 108/5/2 111/5/2
f 111/5/2 108/5/2 112/5/2
f 113/5/2 114/5/2 115/5/2
f 115/5/2 114/5/2 116/5/2
f 119/5/3 118/5/3 117/5/3
f 120/5/3 118/5/3 119/5/3
f 123/5/3 122/5/3 121/5/3
f 124/5/3 122/5/3 123/5/3
f 127/5/3 126/5/3 125/5/3
f 128/5/3 126/5/3 127/5/3
f 131/5/3 130/5/3 129/5/3
f 132/5/3 130/5/3 131/5/3
f 135/5/3 134/5/3 133/5/3
f 136/5/3 134/5/3 135/5/3
f 139/5/3 138/5/3 137/5/3
f 140/5/3 138/5/3 139/5/3
f 143/5/3 141/5/3 140/5/3
f 144/5/3 141/5/3 143/5/3
f 145/5/3 143/5/3 142/5/3
f 146/5/3 143/5/3 145/5/3
f 149/5/3 148/5/3 147/5/3
f 150/5/3 148/5/3 149/5/3
f 153/5/3 152/5/3 151/5/3
f 154/5/3 152/5/3 153/5/3
f 156/5/3 155/5/3 154/5/3
f 157/5/3 155/5/3 156/5/3
f 160/5/3 158/5/3 157/5/3
f 161/5/3 158/5/3 160/5/3
f 163/5/3 160/5/3 159/5/3
f 164/5/3 160/5/3 163/5/3
f 165/5/3 163/5/3 162/5/3
f 166/5/3 163/5/3 165/5/3
f 171/4/3 168/4/3 167/4/3
f 172/4/3 168/4/3 171/4/3
f 173/3/3 170/3/3 169/3/3
f 174/3/3 170/3/3 173/3/3
f 175/4/4 176/4/4 179/4/4
f 179/4/4 176/4/4 180/4/4
f 177/3/4 178/3/4 181/3/4
f 181/3/4 178/3/4 182/3/4
f 183/5/4 184/5/4 185/5/4
f 185/5/4 184/5/4 186/5/4
f 186/5/4 187/5/4 188/5/4
f 188/5/4 187/5/4 189/5/4
f 189/5/4 190/5/4 192/5/4
f 192/5/4 190/5/4 193/5/4
f 191/5/4 192/5/4 195/5/4
f 195/5/4 192/5/4 196/5/4
f 194/5/4 195/5/4 197/5/4
f 197/5/4 195/5/4 198/5/4
f 199/5/4 200/5/4 201/5/4
f 201/5/4 200/5/4 202/5/4
f 203/5/4 204/5/4 205/5/4
f 205/5/4 204/5/4 206/5/4
f 206/5/4 207/5/4 209/5/4
f 209/5/4 207/5/4 210/5/4
f 208/5/4 209/5/4 211/5/4
f 211/5/4 209/5/4 212/5/4
f 213/5/4 214/5/4 215/5/4
f 215/5/4 214/5/4 216/5/4
f 217/5/4 218/5/4 219/5/4
f 219/5/4 218/5/4 220/5/4
f 221/5/4 222/5/4 223/5/4
f 223/5/4 222/5/4 224/5/4
f 225/5/4 226/5/4 227/5/4
f 227/5/4 226/5/4 228/5/4
f 229/5/4 230/5/4 231/5/4
f 231/5/4 230/5/4 232/5/4
f 236/5/5 234/5/5 233/5/5
f 237/5/5 234/5/5 236/5/5
f 238/5/5 234/5/5 237/5/5
f 239/5/5 234/5/5 238/5/5
f 242/5/5 236/5/5 235/5/5
f 242/5/5 237/5/5 236/5/5
f 243/5/5 237/5/5 242/5/5
f 244/1/5 238/1/5 237/1/5
f 244/5/5 237/5/5 243/5/5
f 245/5/5 240/5/5 239/5/5
f 245/1/5 238/1/5 244/1/5
f 245/5/5 239/5/5 238/5/5
f 246/5/5 240/5/5 245/5/5
f 247/5/5 240/5/5 246/5/5
f 249/5/5 242/5/5 241/5/5
f 249/5/5 243/5/5 242/5/5
f 250/1/5 244/1/5 243/1/5
f 250/5/5 243/5/5 249/5/5
f 250/1/5 245/1/5 244/1/5
f 250/1/5 246/1/5 245/1/5
f 251/5/5 248/5/5 247/5/5
f 251/1/5 246/1/5 250/1/5
f 251/5/5 247/5/5 246/5/5
f 252/5/5 248/5/5 251/5/5
f 253/5/5 249/5/5 241/5/5
f 253/1/5 250/1/5 249/1/5
f 253/1/5 252/1/5 251/1/5
f 253/1/5 251/1/5 250/1/5
f 254/1/5 252/1/5 253/1/5
f 255/1/5 252/1/5 254/1/5
f 256/5/5 248/5/5 252/5/5
f 256/1/5 252/1/5 255/1/5
f 257/5/5 253/5/5 241/5/5
f 257/5/5 254/5/5 253/5/5
f 258/5/5 254/5/5 257/5/5
f 259/1/5 255/1/5 254/1/5
f 259/5/5 254/5/5 258/5/5
f 260/1/5 255/1/5 259/1/5
f 261/1/5 255/1/5 260/1/5
f 262/5/5 256/5/5 255/5/5
f 262/1/5 255/1/5 261/1/5
f 263/5/5 248/5/5 256/5/5
f 263/5/5 256/5/5 262/5/5
f 264/5/5 248/5/5 263/5/5
f 265/5/5 259/5/5 258/5/5
f 265/5/5 260/5/5 259/5/5
f 266/5/5 260/5/5 265/5/5
f 267/1/5 261/1/5 260/1/5
f 267/5/5 260/5/5 266/5/5
f 268/5/5 262/5/5 261/5/5
f 268/1/5 261/1/5 267/1/5
f 268/5/5 263/5/5 262/5/5
f 269/5/5 263/5/5 268/5/5
f 270/5/5 263/5/5 269/5/5
f 271/5/5 267/5/5 266/5/5
f 271/5/5 269/5/5 268/5/5
f 271/5/5 268/5/5 267/5/5
f 272/5/5 269/5/5 271/5/5
f 275/4/5 274/4/5 273/4/5
f 276/4/5 274/4/5 275/4/5
f 279/3/5 278/3/5 277/3/5
f 280/3/5 278/3/5 279/3/5
f 281/5/6 282/5/6 284/5/6
f 284/5/6 282/5/6 285/5/6
f 285/5/6 282/5/6 286/5/6
f 286/5/6 282/5/6 287/5/6
f 283/5/6 284/5/6 290/5/6
f 284/5/6 285/5/6 290/5/6
f 290/5/6 285/5/6 291/5/6
f 291/5/6 285/5/6 292/5/6
f 286/5/6 287/5/6 293/5/6
f 287/5/6 288/5/6 293/5/6
f 293/5/6 288/5/6 294/5/6
f 294/5/6 288/5/6 295/5/6
f 290/5/6 291/5/6 297/5/6
f 289/5/6 290/5/6 297/5/6
f 297/5/6 291/5/6 298/5/6
f 295/5/6 296/5/6 299/5/6
f 294/5/6 295/5/6 299/5/6
f 299/5/6 296/5/6 300/5/6
f 289/5/6 297/5/6 301/5/6
f 300/5/6 296/5/6 304/5/6
f 301/5/6 302/5/6 305/5/6
f 289/5/6 301/5/6 305/5/6
f 305/5/6 302/5/6 306/5/6
f 306/5/6 302/5/6 307/5/6
f 303/5/6 304/5/6 310/5/6
f 304/5/6 296/5/6 311/5/6
f 310/5/6 304/5/6 311/5/6
f 311/5/6 296/5/6 312/5/6
f 307/5/6 308/5/6 313/5/6
f 306/5/6 307/5/6 313/5/6
f 313/5/6 308/5/6 314/5/6
f 314/5/6 308/5/6 315/5/6
f 309/5/6 310/5/6 316/5/6
f 310/5/6 311/5/6 316/5/6
f 316/5/6 311/5/6 317/5/6
f 317/5/6 311/5/6 318/5/6
f 314/5/6 315/5/6 319/5/6
f 316/5/6 317/5/6 319/5/6
f 315/5/6 316/5/6 319/5/6
f 319/5/6 317/5/6 320/5/6
f 321/5/6 322/5/6 324/5/6
f 324/5/6 322/5/6 325/5/6
f 323/5/6 324/5/6 328/5/6
f 328/5/6 324/5/6 329/5/6
f 325/5/6 326/5/6 330/5/6
f 330/5/6 326/5/6 331/5/6
f 327/5/6 328/5/6 333/5/6
f 333/5/6 328/5/6 334/5/6
f 331/5/6 332/5/6 337/5/6
f 337/5/6 332/5/6 338/5/6
f 334/5/6 335/5/6 339/5/6
f 339/5/6 335/5/6 340/5/6
f 336/5/6 337/5/6 341/5/6
f 341/5/6 337/5/6 342/5/6
f 340/5/6 341/5/6 343/5/6
f 343/5/6 341/5/6 344/5/6
f 345/5/6 346/5/6 348/5/6
f 348/5/6 346/5/6 349/5/6
f 347/5/6 348/5/6 351/5/6
f 351/5/6 348/5/6 352/5/6
f 349/5/6 350/5/6 353/5/6
f 353/5/6 350/5/6 354/5/6
f 352/5/6 353/5/6 355/5/6
f 355/5/6 353/5/6 356/5/6
f 357/4/6 358/4/6 359/4/6
f 359/4/6 358/4/6 360/4/6
f 361/3/6 362/3/6 363/3/6
f 363/3/6 362/3/6 364/3/6
f 365/5/6 366/5/6 367/5/6
f 367/5/6 366/5/6 368/5/6
